<svg xmlns="http://www.w3.org/2000/svg" viewBox="0 0 318.8 151.5"><defs><style>.cls-1{fill:none;stroke:#bde0fe;stroke-width:32px;}.cls-1,.cls-2{stroke-miterlimit:10;}.cls-2{fill:#fff;stroke:#fcfcfc;}</style></defs><g id="Layer_2" data-name="Layer 2"><g id="Layer_2-2" data-name="Layer 2"><path class="cls-1" d="M48.56,67.24a2.57,2.57,0,0,1-3.14,2l-1.86-.43A32.33,32.33,0,0,0,37,68.2a26,26,0,0,0-4.57.44L31,68.9a2.56,2.56,0,0,0-2,2.52v41.51a2.57,2.57,0,0,1-2.57,2.57H18.57A2.57,2.57,0,0,1,16,112.93V62.54a2.56,2.56,0,0,1,1.75-2.44A78.17,78.17,0,0,1,25.4,58a57.5,57.5,0,0,1,12.52-1.26c.86,0,1.86.05,3,.16s2.29.26,3.43.45,2.26.4,3.33.65l.21,0a2.57,2.57,0,0,1,1.9,3ZM74.77,34A7.59,7.59,0,0,1,72.35,40a8.2,8.2,0,0,1-5.72,2.2A8.37,8.37,0,0,1,60.8,40,7.62,7.62,0,0,1,58.38,34a24.26,24.26,0,0,1,1.09-5.95l.06-.18C60,26.84,64.34,16,66.5,16s7,12,7,12A22,22,0,0,1,74.77,34ZM70.43,115.5H62.57A2.57,2.57,0,0,1,60,112.93V60.07a2.57,2.57,0,0,1,2.57-2.57h7.86A2.57,2.57,0,0,1,73,60.07v52.86A2.57,2.57,0,0,1,70.43,115.5ZM140.6,86.44a41.65,41.65,0,0,1-1.66,12.1,28.55,28.55,0,0,1-4.78,9.46,21.41,21.41,0,0,1-7.79,6.16,24.54,24.54,0,0,1-10.58,2.2,25.59,25.59,0,0,1-7.31-1c-.73-.22-1.42-.44-2.07-.68a2.57,2.57,0,0,0-3.41,2.44v15.8a2.57,2.57,0,0,1-2.57,2.57H92.57A2.57,2.57,0,0,1,90,132.93V61.48A2.58,2.58,0,0,1,92,59q3.38-.81,7.83-1.58a72.71,72.71,0,0,1,12.25-1A32.14,32.14,0,0,1,124,58.5a24.67,24.67,0,0,1,9,6,26.52,26.52,0,0,1,5.7,9.46A37,37,0,0,1,140.6,86.44Zm-11.74.47q0-8.91-4-13.86t-12.93-5c-1.25,0-2.55.06-3.9.17-.62,0-1.23.12-1.84.23A2.59,2.59,0,0,0,104,71v29.38a2.52,2.52,0,0,0,1.3,2.24,25.62,25.62,0,0,0,3.38,1.47,18.15,18.15,0,0,0,6.21,1q7.26,0,10.62-5T128.86,86.91Zm77.74-.47a41.65,41.65,0,0,1-1.66,12.1,28.55,28.55,0,0,1-4.78,9.46,21.41,21.41,0,0,1-7.79,6.16,24.54,24.54,0,0,1-10.58,2.2,25.59,25.59,0,0,1-7.31-1c-.73-.22-1.42-.44-2.07-.68a2.57,2.57,0,0,0-3.41,2.44v15.8a2.57,2.57,0,0,1-2.57,2.57h-7.86a2.57,2.57,0,0,1-2.57-2.57V61.48A2.58,2.58,0,0,1,158,59q3.38-.81,7.83-1.58a72.71,72.71,0,0,1,12.25-1A32.14,32.14,0,0,1,190,58.5a24.67,24.67,0,0,1,9,6,26.52,26.52,0,0,1,5.7,9.46A37,37,0,0,1,206.6,86.44Zm-12.74.47q0-8.91-4-13.86t-12.93-5c-1.25,0-2.55.06-3.9.17-.62,0-1.23.12-1.84.23A2.59,2.59,0,0,0,169,71v29.38a2.52,2.52,0,0,0,1.3,2.24,25.62,25.62,0,0,0,3.38,1.47,18.15,18.15,0,0,0,6.21,1q7.26,0,10.62-5T193.86,86.91Zm47.29,26.36a2.58,2.58,0,0,1-2.69,2.14,32,32,0,0,1-7.31-1.2,14.85,14.85,0,0,1-6.07-3.39,12,12,0,0,1-3.17-5.47,27.89,27.89,0,0,1-.91-7.47V35.38a2.57,2.57,0,0,1,2.15-2.53l7.86-1.3a2.57,2.57,0,0,1,3,2.54V95.41a17.22,17.22,0,0,0,.38,4,6.24,6.24,0,0,0,1.34,2.74,6,6,0,0,0,2.63,1.72,15.39,15.39,0,0,0,1.81.51,2.57,2.57,0,0,1,2,2.94Zm9.73-26.62a36,36,0,0,1,2.26-13.31,28,28,0,0,1,6-9.51,24.57,24.57,0,0,1,8.58-5.72,26.47,26.47,0,0,1,9.9-1.93q11.88,0,18.54,7.37t6.65,22c0,.73,0,1.56-.05,2.48v0a2.55,2.55,0,0,1-2.55,2.45H267.63a2.57,2.57,0,0,0-2.53,3.11,14.14,14.14,0,0,0,4.42,7.62q4.35,3.8,12.6,3.79a41.24,41.24,0,0,0,8.86-.88c1.32-.29,2.5-.59,3.55-.9a2.57,2.57,0,0,1,3.26,2.06l.94,5.84a2.56,2.56,0,0,1-1.68,2.84l-1,.34c-1.29.4-2.75.76-4.4,1.1s-3.43.6-5.34.82a50.87,50.87,0,0,1-5.83.33,35.35,35.35,0,0,1-13.2-2.25A24.64,24.64,0,0,1,258,108a25.52,25.52,0,0,1-5.39-9.46A38.63,38.63,0,0,1,250.88,86.65ZM286.7,80.5a2.58,2.58,0,0,0,2.56-3,16.69,16.69,0,0,0-.54-2.27A12.45,12.45,0,0,0,286.47,71a10.67,10.67,0,0,0-3.64-2.87,11.61,11.61,0,0,0-5.11-1,11.92,11.92,0,0,0-5.39,1.16,12.17,12.17,0,0,0-3.9,3A13.85,13.85,0,0,0,266,75.55c-.2.56-.39,1.13-.55,1.69a2.59,2.59,0,0,0,2.5,3.26Z"/><circle class="cls-1" cx="281" cy="76.5" r="11"/><path class="cls-2" d="M47.52,66.46a41.52,41.52,0,0,0-4.46-1.16,32.33,32.33,0,0,0-6.61-.6,26,26,0,0,0-4.57.44,26.07,26.07,0,0,0-3.38.77V112h-13V57.22a71.76,71.76,0,0,1,9.4-2.7,57.5,57.5,0,0,1,12.52-1.26c.86,0,1.86.05,3,.16s2.29.26,3.43.45,2.26.4,3.33.65,1.94.5,2.58.72ZM74.77,31A7.59,7.59,0,0,1,72.35,37a8.2,8.2,0,0,1-5.72,2.2A8.37,8.37,0,0,1,60.8,37,7.62,7.62,0,0,1,58.38,31a24.51,24.51,0,0,1,1.12-6s4.73-12,7-12,7,12,7,12A22,22,0,0,1,74.77,31ZM73.5,113h-13V55h13Zm67.6-29.06A41.65,41.65,0,0,1,139.44,96a28.55,28.55,0,0,1-4.78,9.46,21.41,21.41,0,0,1-7.79,6.16,24.54,24.54,0,0,1-10.58,2.2,25.59,25.59,0,0,1-7.31-1,26.7,26.7,0,0,1-5.48-2.2V133h-13V57q4-1.1,9.78-2.09a72.71,72.71,0,0,1,12.25-1A32.14,32.14,0,0,1,124.45,56a24.67,24.67,0,0,1,9,6,26.52,26.52,0,0,1,5.7,9.46A37,37,0,0,1,141.1,83.94Zm-12.74,0q0-8.91-4-13.86t-12.93-5c-1.25,0-2.55.06-3.9.17a22,22,0,0,0-4,.71V98.87a20.44,20.44,0,0,0,4.68,2.26,18.15,18.15,0,0,0,6.21,1q7.26,0,10.62-5T128.36,83.91Zm77.74,0A41.65,41.65,0,0,1,204.44,96a28.55,28.55,0,0,1-4.78,9.46,21.41,21.41,0,0,1-7.79,6.16,24.54,24.54,0,0,1-10.58,2.2,25.59,25.59,0,0,1-7.31-1,26.7,26.7,0,0,1-5.48-2.2V133h-13V57q4-1.1,9.78-2.09a72.71,72.71,0,0,1,12.25-1A32.14,32.14,0,0,1,189.45,56a24.67,24.67,0,0,1,9,6,26.52,26.52,0,0,1,5.7,9.46A37,37,0,0,1,206.1,83.94Zm-11.74,0q0-8.91-4-13.86t-12.93-5c-1.25,0-2.55.06-3.9.17a22,22,0,0,0-4,.71V98.87a20.44,20.44,0,0,0,4.68,2.26,18.15,18.15,0,0,0,6.21,1q7.26,0,10.62-5T194.36,83.91Zm46.91,28.59a35.92,35.92,0,0,1-9.62-1.29,14.85,14.85,0,0,1-6.07-3.39,12,12,0,0,1-3.17-5.48,27.76,27.76,0,0,1-.91-7.46V30.2l13-2.15V92.4a17.26,17.26,0,0,0,.38,4,6.24,6.24,0,0,0,1.34,2.74,6,6,0,0,0,2.63,1.72,20.63,20.63,0,0,0,4.24.91Zm9.61-28.35a36,36,0,0,1,2.26-13.31,28,28,0,0,1,6-9.51,24.57,24.57,0,0,1,8.58-5.72,26.47,26.47,0,0,1,9.9-1.93q11.88,0,18.54,7.37t6.65,22c0,.73,0,1.56-.05,2.48s-.1,1.74-.17,2.47H264.63q.56,6.93,4.89,10.73t12.6,3.79a41.24,41.24,0,0,0,8.86-.88,36.87,36.87,0,0,0,6.32-1.87l1.76,10.89a21.53,21.53,0,0,1-3,1.16c-1.29.4-2.75.76-4.4,1.1s-3.43.6-5.34.82a50.87,50.87,0,0,1-5.83.33,35.35,35.35,0,0,1-13.2-2.25,24.64,24.64,0,0,1-9.24-6.28,25.52,25.52,0,0,1-5.39-9.46A38.63,38.63,0,0,1,250.88,84.15ZM289.49,78a17.58,17.58,0,0,0-.77-5.22,12.45,12.45,0,0,0-2.25-4.29,10.67,10.67,0,0,0-3.64-2.87,11.61,11.61,0,0,0-5.11-1,11.92,11.92,0,0,0-5.39,1.16,12.17,12.17,0,0,0-3.9,3A13.85,13.85,0,0,0,266,73.05a22.94,22.94,0,0,0-1.21,5Z"/></g></g></svg>